<svg width="124" height="124" viewBox="0 0 124 124" fill="none" xmlns="http://www.w3.org/2000/svg">
<g id="&#240;&#159;&#166;&#134; icon &#34;file type dartlang&#34;">
<path id="Vector" d="M65.4154 0C63.9042 0.00600374 62.4551 0.602399 61.3775 1.66192L61.3201 1.706L23.4531 23.5931L61.2143 61.3543V61.3807L106.62 106.786L115.273 91.1982L84.058 16.2709L69.5107 1.72363C68.9761 1.18301 68.3398 0.753541 67.6384 0.459985C66.9371 0.16643 66.1846 0.0145921 65.4242 0.0132249L65.4154 0Z" fill="#66C3FA"/>
<path id="Vector_2" d="M23.5842 23.4232L1.71041 61.2506L1.66633 61.3079C0.605183 62.3902 0.00746991 63.8434 0 65.3591C0.000837541 66.1171 0.152055 66.8674 0.444894 67.5666C0.737734 68.2658 1.16638 68.8999 1.706 69.4323L19.8372 87.5635L90.7398 115.455L106.768 106.55L106.327 106.109H106.217L61.7687 61.5856H61.7158L23.5842 23.4232Z" fill="#215896"/>
<path id="Vector_3" d="M23.3286 23.4749L61.9627 62.1486H62.02L106.486 106.672L123.41 103.445L123.432 53.3541L105.56 35.8401C101.105 31.8636 95.5208 29.3737 89.5849 28.7163V28.5224L23.3286 23.4749Z" fill="#235997"/>
<path id="Vector_4" d="M23.6128 23.6901L62.2645 62.3418V62.3991L106.753 106.887L103.517 123.811H53.4391L35.9339 105.931C31.9601 101.472 29.4733 95.8872 28.819 89.9508H28.625L23.6128 23.6901Z" fill="#58B6F0"/>
</g>
</svg>
