<svg width="132" height="122" viewBox="0 0 132 122" fill="none" xmlns="http://www.w3.org/2000/svg">
<g id="flask 1" clip-path="url(#clip0_2218_586)">
<rect width="132" height="122" fill="white"/>
<path id="Vector" d="M39.4456 103.541C25.6056 96.0449 13.7857 77.9491 7.67641 62.0768C5.22254 55.1914 4.38213 47.8094 1.21877 41.19C-2.09042 36.3824 1.78585 31.1268 7.48371 29.5986C10.0205 29.1486 14.481 26.937 9.09674 28.5177C4.26957 31.791 3.8024 25.5465 8.7523 25.151C12.1304 24.736 13.3739 22.1801 12.2187 19.8793C8.59254 17.6937 21.0117 15.2918 14.7629 12.0306C8.25329 5.53961 23.8683 4.29006 20.0159 11.6619C19.0937 17.3305 30.927 10.6229 28.1814 17.169C30.972 20.3126 38.6315 17.8845 38.4415 22.2947C42.5067 22.553 43.9019 25.7143 47.718 25.957C51.673 27.6078 58.8429 28.9086 60.1887 33.0279C56.2649 35.899 47.1786 27.0972 46.7421 35.0449C48.3979 63.0795 49.9667 72.7455 64.6135 87.4321C74.4796 97.7495 88.0366 102.615 99.4814 104.347C101.947 102.604 106.299 96.1252 110.145 98.8574C110.327 101.927 102.512 105.275 109.777 104.935C114.043 103.746 117.002 107.985 120.515 104.161C123.752 107.705 133.968 101.897 131.665 109.14C128.551 110.997 124.009 109.875 120.89 112.429C115.747 110.055 111.653 114.554 105.96 113.985C84.0113 117.535 55.4095 114.333 39.4456 103.541ZM65.2426 112.314C74.8111 113.544 84.6923 115.436 94.2951 113.711C89.949 111.897 85.4558 114.417 81.1261 112.414C75.9332 113.446 70.3605 112.15 65.0813 111.512C59.0779 109.041 52.5992 107.341 46.9773 104.133C39.9525 101.762 50.6104 107.175 52.5075 107.613C56.8989 109.917 47.6784 106.432 46.3785 105.474C42.7004 103.567 42.1386 104.012 45.9212 105.948C51.8195 109.326 59.2115 111.615 65.2426 112.314ZM37.8556 100.258C43.1883 102.083 37.832 96.7916 35.3884 97.0991C34.3057 95.3631 31.2519 94.2664 33.4061 93.3338C29.5312 94.5771 29.3469 88.6058 27.5255 89.459C23.4262 88.2626 25.9301 84.0246 21.0471 81.422C20.6014 78.6796 16.1956 76.301 14.7904 72.1646C14.1698 70.0467 9.81285 63.9649 12.4893 69.625C14.7682 75.0737 18.7776 79.7399 22.1143 84.4007C24.7052 88.8384 27.7645 93.4762 32.4831 96.2446C34.0736 97.6548 35.6094 99.8156 37.8556 100.258ZM44.7233 91.6691C41.8055 90.2316 35.4536 89.4878 39.936 92.7761C42.8134 93.8509 50.1469 94.3723 44.7233 91.6691ZM49.6137 97.3842C55.8804 99.0226 44.3441 93.7215 48.0676 96.7813L49.6137 97.3842ZM49.6669 94.3151C54.2194 94.8576 44.2501 91.4532 48.668 94.0105L49.6669 94.3151ZM65.4889 103.307C69.7391 100.958 68.3379 108.806 72.6997 103.97C77.0023 101.066 68.9841 107.559 74.2868 104.487C78.1217 102.117 83.7859 105.611 87.3643 106.751C89.9376 106.634 92.4392 108.808 95.0772 107.485C100.155 106.221 85.1468 105.61 89.0811 103.368C84.4345 104.617 81.0013 101.877 78.7149 99.1265C73.5027 98.0142 67.4762 95.5513 64.875 91.2881C63.8144 89.6875 66.4071 91.5136 63.9594 88.8971C60.8187 86.3153 59.2504 83.3845 57.142 80.246C54.6233 79.0042 54.3299 75.3488 54.0753 80.1235C54.0952 77.1101 51.0342 75.0819 50.2871 75.925C50.2737 73.0229 53.5629 74.4776 51.2604 72.3304C50.7648 69.3225 49.133 66.1882 48.6425 62.7921C47.8804 61.1551 48.5352 57.649 46.0415 61.3548C45.133 65.2713 45.74 56.5419 47.1528 59.4205C49.0072 56.4831 46.4871 56.8286 46.3838 57.2365C47.5918 54.7581 47.1484 51.2427 46.0686 52.5838C46.7123 49.957 47.0855 42.9164 45.1053 44.1641C46.3056 41.4173 47.3817 31.5951 42.1708 35.34C40.059 35.3674 36.4018 36.0485 34.6731 36.8431C40.0934 39.6046 34.1279 37.8404 31.9215 37.4015C31.634 39.9567 29.4486 38.8516 26.7183 38.8766C31.0791 39.3753 24.5947 42.9988 22.0931 41.5913C18.8441 43.0264 24.897 46.6089 22.1582 47.7165C22.4948 49.3865 17.1808 47.1135 17.5981 50.97C14.444 49.7436 17.1638 55.5446 18.7418 53.5827C24.1064 54.9246 22.5184 57.984 22.655 60.8902C21.7809 62.5836 18.3396 56.9097 21.8886 57.1725C19.0887 52.9687 18.7914 55.653 16.4648 57.6059C15.9235 57.7477 22.3994 60.3845 18.3355 61.6883C21.9109 62.1982 22.0126 65.0901 22.7405 66.92C24.8896 68.9888 24.4497 64.6356 27.0211 67.1218C25.3939 64.9069 18.4021 60.8811 24.0315 62.1723C24.0014 59.9431 23.0133 58.1455 24.738 58.1891C26.4459 55.3304 22.9493 65.2375 26.799 61.6043C27.8647 61.1742 28.1287 58.742 30.0442 61.834C32.8264 64.3636 31.0491 66.1967 27.1245 63.8804C27.8267 66.0819 32.3746 66.8686 31.52 70.3113C32.426 73.3393 33.6936 72.224 34.7986 72.049C35.6653 74.991 36.1575 72.8276 36.1987 71.4276C40.1674 72.2128 39.2378 74.3811 40.4795 75.896C43.2143 77.0368 36.5652 68.1627 41.2603 73.2276C46.2 77.3495 43.1396 78.7704 38.6799 78.4098C42.3893 78.6904 42.4673 81.7443 45.8998 81.785C48.8834 83.2069 51.2347 88.5413 45.7185 86.2916C42.6078 84.5078 37.0667 82.7855 42.5967 85.8182C43.9058 86.5841 51.7608 89.312 56.6868 92.056C59.4141 93.7792 61.7352 97.0463 63.0714 97.5736C60.1085 98.8816 54.1423 96.5292 58.5726 95.8082C55.8093 95.343 52.7972 94.033 55.3481 97.2335C57.5414 99.087 63.3216 98.7863 64.3475 98.9831C63.4779 100.754 61.9855 100.895 64.3832 101.032C61.7083 102.35 65.2409 102.554 65.4889 103.307ZM59.7299 87.0742C57.9706 84.5104 58.3914 87.4568 60.0189 89.0298C62.6199 91.8891 60.632 87.409 59.7299 87.0742ZM50.0178 73.812C50.0178 73.812 50.4515 71.1074 49.1136 70.8083C47.7757 70.5091 48.5126 71.007 49.5832 73.148C49.8386 73.6586 49.9963 73.8357 49.9941 73.8239M35.3731 63.5608C34.0441 60.8098 36.0055 62.3036 35.7199 61.1303C35.1065 59.9509 29.1437 53.6875 31.8598 58.4161C34.3176 64.057 30.3133 57.7079 29.8956 55.786C29.4338 56.9661 30.8681 60.8318 31.7351 62.1493C33.9423 65.2909 32.9495 60.4287 35.3731 63.5608ZM23.1625 52.7132C19.7114 50.0302 24.2264 54.0358 22.825 53.9852C19.188 51.5303 20.6746 53.2695 22.7289 55.1562C24.9545 58.2125 26.7914 53.3248 23.1625 52.7132ZM24.9342 53.1745C31.4627 54.8324 17.9866 47.3518 23.9586 52.2639L24.9342 53.1745ZM43.0008 60.3062C41.1269 60.3415 43.7779 56.535 41.2656 57.2862C40.3843 51.3702 38.4849 60.0202 41.0692 61.4523C41.8671 63.5713 42.7054 62.7078 43.0008 60.3062ZM27.5874 51.8906C36.2802 55.5985 21.2935 45.7574 25.1301 50.6498C25.5861 51.5927 26.679 51.6711 27.5874 51.8906ZM28.5836 49.9686C35.1674 52.4838 27.998 48.3318 25.7178 48.7826C26.2926 49.5602 27.8521 49.2201 28.5836 49.9686ZM29.4652 47.6918C31.6025 47.2972 29.1818 46.6639 27.9046 45.7259C24.9489 41.6221 28.3443 46.0573 27.4152 47.3169C28.6454 48.4344 32.8265 50.4324 29.4652 47.6918ZM44.5854 41.3246C43.7126 45.5878 42.8223 43.8097 44.0735 40.6313C43.7742 36.552 41.0919 43.1294 42.2773 45.0601C44.2372 47.9455 46.1972 37.9694 44.5854 41.3246ZM47.1915 92.0824C50.5861 92.8875 50.5687 91.5943 47.5007 91.2101C45.8505 89.7913 40.6435 88.2863 45.304 91.034C45.6127 91.7567 46.588 91.7398 47.1915 92.0824ZM35.1389 84.6836C37.009 85.9725 42.1831 88.3366 37.8031 85.1742C39.2798 83.5885 34.9765 82.7444 36.404 81.6837C32.7731 79.6302 33.5398 79.8129 36.0835 79.8775C31.7199 78.0748 36.7134 78.2096 36.4783 77.2859C34.7957 76.9788 28.1208 74.5437 32.0476 77.4859C28.0558 75.6048 31.0963 78.1867 29.8898 77.9137C25.8079 76.8851 33.525 80.7871 29.2415 79.8185C31.5833 81.5336 35.5448 84.2119 30.2316 81.6336C29.5315 82.5649 34.0338 83.9767 35.1389 84.6836ZM77.5529 107.673C79.3434 106.069 77.6261 110.227 80.5198 107.28C80.551 105.171 80.4307 103.925 77.1945 106.487C76.3023 106.945 75.9041 108.889 77.5529 107.673ZM48.2317 90.2738C50.2235 91.9089 57.3795 91.4735 50.6509 90.475C49.6543 89.1131 44.3228 89.4409 48.2317 90.2738ZM15.4256 69.9066C12.5324 66.0912 13.6271 64.3762 10.837 61.2609C10.3088 58.8786 6.05051 53.4726 8.63452 59.1998C11.0013 62.5493 11.7046 67.7354 15.4256 69.9066ZM101.149 107.563C103.964 107.035 110.379 108.887 111.415 106.873C107.997 106.796 99.5885 104.644 99.1906 107.386L101.149 107.563ZM5.29421 41.8194C4.78118 39.1012 4.16079 34.3299 9.06798 35.9424C2.51769 37.1444 13.6015 43.467 12.2018 38.475C14.9561 38.5997 17.5898 36.9706 16.1444 39.4428C21.571 38.8889 25.3333 34.5397 30.5751 35.1491C34.6582 34.6497 39.1225 34.271 43.5226 32.7519C47.1403 32.511 50.6228 28.9111 48.6398 26.7774C43.7063 26.3916 38.542 26.9621 33.0891 27.9638C27.0467 29.1248 21.5581 31.3306 15.4614 32.2774C9.51877 33.0152 16.6566 34.3102 14.9545 34.5987C11.8535 35.5931 18.6525 36.2637 14.5524 37.312C12.0203 36.867 9.38465 36.0629 10.4663 33.5967C4.7738 34.2794 -0.228245 36.4629 4.26915 41.8169L5.29421 41.8194ZM20.508 35.9663C25.471 39.1022 19.6551 30.8184 18.3204 35.3627C18.9403 35.2218 19.9153 35.5563 20.508 35.9663ZM21.9207 33.8651C26.6254 34.3024 21.2 31.1043 21.0261 33.1124L21.9207 33.8651ZM29.8054 31.202C36.7497 29.9803 27.2625 29.1629 25.2279 31.4223C26.5172 31.9656 27.944 29.9068 29.8054 31.202ZM41.7165 29.0155C46.1063 28.3924 42.4065 26.53 41.1221 29.6406C41.5877 30.6214 41.8118 29.3465 41.7165 29.0155ZM18.102 45.5907C20.5832 45.4332 21.984 43.0611 17.6221 43.1974C10.8619 42.5506 23.5865 45.3368 16.7549 44.5401C15.8369 45.102 18.0486 45.7462 18.102 45.5907ZM14.6275 27.4761C19.0558 26.0837 24.646 24.9012 27.1383 28.259C25.2636 25.8145 26.3435 23.4643 28.3533 26.9251C31.1952 30.4268 32.215 26.0255 30.7695 24.158C32.1447 26.1683 37.2504 30.5458 32.1798 24.3109C35.5397 20.5755 25.4522 24.8 23.1594 24.7575C22.0563 25.2151 11.7702 27.182 14.6275 27.4761ZM17.2227 22.8823C19.7482 21.1206 25.9571 23.9303 21.9729 21.1315C21.5834 20.8135 13.2474 23.2538 17.2227 22.8823ZM26.4298 23.2336C29.3855 23.3034 25.1549 19.5637 28.677 21.2583C28.0986 19.5117 24.5763 19.1847 22.8543 18.487C21.8803 20.0838 24.8368 23.2551 26.4298 23.2336ZM15.5738 11.26C12.22 7.21362 21.8811 11.9402 18.4736 7.70349C15.6057 5.59277 12.8498 10.0788 15.5738 11.26ZM58.6143 32.6866C60.1525 30.1663 52.2636 29.2894 57.5779 31.7934C58.0672 31.9445 57.9564 32.8609 58.6143 32.6866Z" fill="black"/>
</g>
<defs>
<clipPath id="clip0_2218_586">
<rect width="132" height="122" fill="white"/>
</clipPath>
</defs>
</svg>
