<svg width="140" height="125" viewBox="0 0 140 125" fill="none" xmlns="http://www.w3.org/2000/svg">
<g id="&#240;&#159;&#166;&#134; icon &#34;laravel&#34;">
<path id="Vector" d="M139.928 28.9687C139.973 29.1311 140 29.3128 140 29.4714V56.0345C140 56.7188 139.577 57.3645 138.874 57.7048L112.903 70.5533V95.9873C112.903 96.6717 112.479 97.3174 111.777 97.6577L57.5639 124.441C57.4468 124.503 57.3071 124.542 57.163 124.58C57.1179 124.6 57.0684 124.619 57.0234 124.642C56.6495 124.723 56.2486 124.723 55.8748 124.642C55.8027 124.623 55.7577 124.604 55.7126 124.58C55.573 124.542 55.4559 124.499 55.3388 124.441L1.14857 97.6577C0.445917 97.3136 0 96.6717 0 95.9873V16.302C0 16.1396 0.0450421 15.9578 0.0945885 15.7993C0.11711 15.7374 0.139631 15.6988 0.166656 15.6369C0.211698 15.5364 0.261244 15.4359 0.306287 15.3353C0.328808 15.2735 0.400875 15.2348 0.445917 15.1729C0.517985 15.0917 0.585548 15.0105 0.657615 14.9293C0.729683 14.8907 0.797246 14.8481 0.869313 14.7901C0.963902 14.7283 1.03147 14.6703 1.12605 14.6277L28.2234 1.23407C28.9261 0.889952 29.7954 0.889952 30.4755 1.23407L57.5954 14.6277C57.69 14.6664 57.7575 14.7283 57.8296 14.7901C57.9017 14.8288 57.9918 14.8907 58.0638 14.9293C58.1359 15.0105 58.1809 15.0685 58.253 15.1729C58.298 15.2116 58.3701 15.2735 58.4152 15.3353C58.4602 15.4359 58.5098 15.5364 58.5548 15.6369C58.5773 15.6988 58.6269 15.7374 58.6269 15.7993C58.6989 15.9617 58.7214 16.1202 58.7214 16.302V66.0642L81.2876 54.9093V29.4752C81.2876 29.2935 81.3326 29.1311 81.3822 28.9726C81.4047 28.9107 81.4272 28.8527 81.4542 28.8102C81.4993 28.7097 81.5488 28.6091 81.5939 28.5086C81.6389 28.4274 81.711 28.3887 81.756 28.3269C81.8281 28.2457 81.8731 28.1645 81.9452 28.1065C82.0173 28.0485 82.1073 28.006 82.1794 27.9673C82.2515 27.9054 82.319 27.8474 82.4136 27.8049L109.534 14.4112C110.214 14.0478 111.083 14.0478 111.786 14.4112L138.883 27.8049C138.978 27.8436 139.045 27.9054 139.14 27.9673C139.212 28.006 139.279 28.0485 139.351 28.1065C139.423 28.1645 139.491 28.2457 139.563 28.3269C139.608 28.3887 139.68 28.4274 139.703 28.5086C139.775 28.6091 139.797 28.7097 139.842 28.8102C139.887 28.8489 139.914 28.9107 139.937 28.9726L139.928 28.9687ZM135.469 54.9054V32.8353L125.992 37.506L112.903 43.9902V66.0604L135.469 54.9054ZM108.398 94.8583V72.7649L95.4939 79.0674L58.7079 97.1125V119.407L108.398 94.8583ZM4.49521 19.662V94.8583L54.1812 119.407V97.1125L28.2099 84.4844C28.1153 84.4457 28.0477 84.3839 27.9757 84.322C27.9036 84.2833 27.8135 84.2408 27.764 84.1828H27.7415C27.6694 84.121 27.6243 84.0436 27.5523 83.9818C27.5072 83.9199 27.4352 83.8619 27.3901 83.7807C27.3451 83.7188 27.2955 83.6183 27.273 83.5371C27.228 83.4559 27.1784 83.3979 27.1559 83.3167C27.1334 83.2355 27.1109 83.135 27.1109 83.0345C27.0883 82.9533 27.0658 82.8953 27.0658 82.8141V30.8169L13.9766 24.3327L4.49521 19.662ZM29.3405 5.14314L6.77434 16.2981L29.3405 27.453L51.9066 16.2981L29.3405 5.14314ZM41.092 74.7833L54.1812 68.2991V19.6658L44.7043 24.3366L31.5926 30.8208V79.454L41.092 74.7833ZM110.651 18.3126L88.0574 29.4675L110.651 40.6225L133.217 29.4675L110.651 18.3126ZM108.398 43.9902L85.8053 32.8353V54.9054L98.8945 61.3896L108.394 66.0604L108.398 43.9902ZM56.4378 93.7525L106.101 69.4243L83.5577 58.2693L33.9167 82.7986L56.4378 93.7525Z" fill="black"/>
</g>
</svg>
