<svg width="124" height="124" viewBox="0 0 124 124" fill="none" xmlns="http://www.w3.org/2000/svg">
<g id="nextjs 1" clip-path="url(#clip0_2217_545)">
<path id="Vector" d="M37.2 37.2L40.5508 34.7799C39.5011 33.3266 37.6342 32.7156 35.9283 33.2671C34.2224 33.8188 33.0667 35.4072 33.0667 37.2H37.2ZM62 115.733C32.3239 115.733 8.26667 91.6765 8.26667 62H0C0 96.2414 27.7583 124 62 124V115.733ZM115.733 62C115.733 91.6765 91.6765 115.733 62 115.733V124C96.2414 124 124 96.2414 124 62H115.733ZM62 8.26667C91.6765 8.26667 115.733 32.3239 115.733 62H124C124 27.7583 96.2414 0 62 0V8.26667ZM62 0C27.7583 0 0 27.7583 0 62H8.26667C8.26667 32.3239 32.3239 8.26667 62 8.26667V0ZM41.3333 99.2V37.2H33.0667V99.2H41.3333ZM33.8492 39.6201L87.5828 114.02L94.2838 109.18L40.5508 34.7799L33.8492 39.6201ZM82.6667 33.0667V82.6667H90.9333V33.0667H82.6667Z" fill="black"/>
</g>
<defs>
<clipPath id="clip0_2217_545">
<rect width="124" height="124" fill="white"/>
</clipPath>
</defs>
</svg>
