<svg width="154" height="137" viewBox="0 0 154 137" fill="none" xmlns="http://www.w3.org/2000/svg">
<g id="&#240;&#159;&#166;&#134; icon &#34;file type reactjs&#34;">
<g id="Group">
<path id="Vector" d="M76.6106 81.7137C84.1661 81.7137 90.291 75.5888 90.291 68.0333C90.291 60.4778 84.1661 54.3528 76.6106 54.3528C69.0551 54.3528 62.9302 60.4778 62.9302 68.0333C62.9302 75.5888 69.0551 81.7137 76.6106 81.7137Z" fill="#00D8FF"/>
<path id="Vector_2" d="M76.6104 99.3982C60.1673 99.796 43.7653 97.5795 28.0175 92.8316C20.7429 90.5256 13.9581 86.8929 8.00579 82.1171C5.73445 80.4856 3.84295 78.3821 2.46107 75.9508C1.07918 73.5195 0.239624 70.818 0 68.0318C0 58.9863 9.93746 50.1213 26.5838 44.3208C42.7526 39.1811 59.6462 36.6901 76.6104 36.9444C93.3481 36.7105 110.015 39.1565 125.98 44.1895C132.986 46.423 139.541 49.8801 145.341 54.4006C147.573 55.956 149.436 57.9833 150.798 60.339C152.16 62.6946 152.987 65.3209 153.221 68.0318C153.221 77.433 142.112 86.96 124.218 92.8809C108.775 97.4741 92.7195 99.6721 76.6104 99.3982ZM76.6104 43.4891C60.3806 43.2721 44.2197 45.6402 28.7344 50.5044C13.4123 55.8507 6.54472 63.1615 6.54472 68.0153C6.54472 73.0935 13.9267 81.0774 30.1352 86.6207C45.2005 91.1399 60.8867 93.2436 76.6104 92.8535C92.0222 93.1291 107.385 91.0438 122.166 86.67C138.993 81.0938 146.654 73.099 146.654 68.0318C146.378 66.2929 145.744 64.6301 144.793 63.1485C143.842 61.6669 142.594 60.3987 141.127 59.424C135.938 55.4137 130.083 52.3498 123.83 50.3731C108.557 45.5781 92.6164 43.2542 76.6104 43.4891Z" fill="#00D8FF"/>
<path id="Vector_3" d="M45.5264 136.265C42.9736 136.324 40.451 135.704 38.2156 134.47C30.3794 129.95 27.6652 116.915 30.954 99.5961C34.5801 83.0214 40.863 67.1423 49.5594 52.5737C57.7169 37.9581 68.1603 24.7418 80.4935 13.4258C85.9283 8.47187 92.1978 4.52008 99.0114 1.75366C101.476 0.598701 104.164 0 106.886 0C109.607 0 112.296 0.598701 114.76 1.75366C122.908 6.44878 125.606 20.8296 121.803 39.2873C118.065 54.9627 111.945 69.9721 103.657 83.7924C95.7868 98.2355 85.6723 111.337 73.6916 122.607C68.0596 127.755 61.5234 131.816 54.4132 134.585C51.5667 135.642 48.5621 136.21 45.5264 136.265ZM55.2285 55.8242C46.9333 69.7745 40.9115 84.9564 37.3893 100.8C34.3632 116.751 37.2689 126.344 41.4934 128.785C45.8711 131.318 56.4981 128.916 69.4015 117.643C80.8385 106.846 90.4925 94.3056 98.0045 80.4873C105.944 67.2748 111.815 52.9247 115.411 37.9357C118.99 20.5615 115.898 9.92361 111.51 7.39547C109.865 6.76522 108.107 6.48309 106.348 6.56692C104.588 6.65075 102.865 7.09871 101.288 7.88249C95.2229 10.3852 89.647 13.9382 84.8166 18.3781C73.0332 29.2173 63.0575 41.8698 55.2669 55.857L55.2285 55.8242Z" fill="#00D8FF"/>
<path id="Vector_4" d="M107.676 136.333C100.261 136.333 90.8438 131.846 81.0377 123.414C68.4883 111.995 57.8684 98.6214 49.5891 83.8116C41.0018 69.4436 34.7686 53.7943 31.126 37.4568C29.5462 30.2691 29.2535 22.8581 30.2614 15.5682C30.4944 12.8639 31.3179 10.2436 32.6737 7.89215C34.0295 5.54071 35.8847 3.51534 38.1085 1.95888C46.2456 -2.75266 60.0519 2.09021 74.1427 14.5996C85.8564 25.6653 95.8037 38.4621 103.638 52.5436C112.22 66.5762 118.518 81.8828 122.298 97.8915C123.946 105.343 124.2 113.035 123.048 120.579C122.773 123.361 121.901 126.051 120.49 128.464C119.079 130.878 117.162 132.957 114.872 134.561C112.673 135.779 110.19 136.391 107.676 136.333ZM55.2528 80.5174C63.1953 94.6708 73.3399 107.47 85.306 118.434C97.6129 129.023 107.375 131.299 111.572 128.831C115.95 126.287 119.179 115.9 115.852 99.0954C112.206 83.8113 106.165 69.2004 97.9521 55.805C90.4762 42.3278 80.9815 30.0741 69.7978 19.4698C56.5333 7.69371 45.775 5.0616 41.3918 7.60069C40.0256 8.71089 38.9045 10.0923 38.0992 11.6577C37.2939 13.2231 36.8219 14.9384 36.7131 16.6954C35.843 23.1968 36.1265 29.8008 37.5503 36.2037C41.0542 51.8275 47.0322 66.7911 55.2583 80.5283L55.2528 80.5174Z" fill="#00D8FF"/>
</g>
</g>
</svg>
